<?xml version="1.0" standalone="no"?>
<!DOCTYPE svg PUBLIC "-//W3C//DTD SVG 20010904//EN"
 "http://www.w3.org/TR/2001/REC-SVG-20010904/DTD/svg10.dtd">
<svg version="1.0" xmlns="http://www.w3.org/2000/svg"
 width="1024.000000pt" height="1024.000000pt" viewBox="0 0 1024.000000 1024.000000"
 preserveAspectRatio="xMidYMid meet">
<metadata>
Created by potrace 1.11, written by Peter Selinger 2001-2013
</metadata>
<g transform="translate(0.000000,1024.000000) scale(0.100000,-0.100000)"
fill="#000000" stroke="none">
<path d="M4986 8865 c-4 -11 -22 -15 -74 -15 -110 0 -388 -44 -542 -87 -30 -8
-68 -18 -85 -23 -16 -4 -64 -20 -105 -35 -41 -14 -87 -30 -101 -35 -15 -4 -44
-16 -65 -25 -22 -10 -55 -24 -74 -32 -313 -135 -633 -354 -886 -607 -164 -165
-271 -296 -391 -482 -105 -162 -143 -232 -235 -434 -79 -173 -164 -462 -197
-667 -6 -40 -17 -103 -23 -140 -16 -93 -15 -615 1 -713 7 -41 17 -104 23 -140
52 -332 196 -717 383 -1025 45 -74 152 -233 165 -245 3 -3 32 -39 64 -80 82
-103 353 -372 456 -451 425 -327 878 -524 1375 -598 293 -43 611 -44 895 0
291 44 656 161 880 282 240 130 371 216 530 347 223 184 489 480 595 662 6 10
33 55 62 100 72 117 150 275 211 428 99 250 146 442 191 785 14 102 14 480 1
582 -32 235 -62 400 -89 483 -5 14 -14 45 -21 70 -80 284 -233 594 -430 874
-135 190 -370 435 -575 597 -269 212 -676 422 -970 499 -16 5 -55 15 -86 24
-154 42 -429 86 -536 86 -47 0 -65 4 -69 15 -5 12 -30 15 -139 15 -109 0 -134
-3 -139 -15z m308 -795 c341 -39 540 -97 816 -238 94 -48 278 -163 312 -195 7
-6 30 -25 52 -41 128 -96 314 -302 439 -487 53 -79 174 -308 208 -394 38 -97
92 -282 107 -370 6 -33 17 -91 24 -130 17 -94 17 -478 0 -570 -7 -38 -18 -97
-24 -130 -6 -33 -20 -94 -31 -135 -11 -41 -22 -85 -24 -98 -3 -12 -9 -25 -14
-28 -5 -3 -9 -15 -9 -28 0 -12 -4 -26 -8 -32 -4 -5 -14 -27 -21 -49 -23 -70
-136 -290 -195 -380 -232 -356 -561 -636 -943 -804 -148 -65 -275 -105 -448
-140 -242 -49 -613 -49 -835 0 -220 50 -354 96 -530 184 -138 68 -212 113
-300 179 -311 232 -519 480 -681 812 -38 77 -69 147 -69 155 0 8 -4 19 -8 25
-13 14 -62 177 -92 304 -19 81 -30 164 -41 304 -22 286 26 622 126 886 9 25
20 54 24 65 5 11 34 74 66 140 154 315 395 597 701 818 29 20 54 37 57 37 3 0
25 13 49 29 87 59 212 118 423 201 75 29 255 74 360 89 227 33 359 38 509 21z"/>
<path d="M861 6250 c-29 -10 -65 -27 -80 -37 -50 -33 -116 -110 -140 -164 -13
-30 -28 -63 -33 -74 -9 -21 -5 -403 6 -470 3 -22 11 -87 17 -145 11 -104 37
-273 60 -380 6 -30 15 -73 20 -95 16 -78 22 -101 51 -205 16 -58 33 -118 38
-135 15 -57 98 -292 120 -342 6 -13 14 -33 20 -45 5 -13 30 -70 56 -128 296
-671 766 -1265 1375 -1740 85 -66 392 -275 445 -302 16 -8 58 -32 94 -53 117
-67 352 -180 500 -239 80 -32 154 -62 165 -66 30 -13 205 -71 243 -81 17 -5
47 -13 65 -18 299 -84 594 -137 875 -156 56 -4 102 -11 102 -16 0 -5 119 -9
265 -9 146 0 265 4 265 9 0 5 42 11 93 15 263 19 658 88 837 146 14 4 45 13
70 20 94 26 302 96 385 130 472 189 862 422 1255 749 410 342 807 823 1048
1271 51 95 182 357 182 364 0 3 9 28 21 54 12 26 25 57 30 70 5 12 13 32 18
45 20 48 80 214 92 252 6 22 16 51 20 65 13 40 76 272 84 310 4 19 11 53 16
75 72 320 127 888 98 1015 -30 134 -106 236 -216 292 -63 31 -71 33 -177 33
-102 0 -116 -3 -166 -28 -94 -48 -166 -125 -200 -215 -15 -39 -21 -98 -30
-268 -15 -322 -44 -524 -116 -809 -30 -117 -68 -245 -84 -280 -5 -11 -16 -40
-24 -65 -61 -189 -216 -502 -357 -722 -292 -455 -676 -841 -1127 -1135 -62
-40 -114 -73 -116 -73 -3 0 -37 -19 -78 -43 -131 -77 -332 -171 -493 -231 -55
-21 -109 -41 -120 -46 -31 -13 -58 -22 -90 -30 -16 -5 -77 -21 -135 -37 -131
-37 -247 -63 -360 -82 -246 -41 -316 -46 -635 -46 -319 0 -391 6 -620 46 -279
49 -605 144 -815 236 -19 8 -51 22 -70 30 -59 26 -261 128 -330 168 -36 21
-79 46 -97 56 -40 23 -146 92 -153 100 -3 3 -27 20 -55 39 -216 145 -528 431
-708 648 -470 567 -750 1201 -846 1917 -20 150 -31 300 -31 420 0 173 -30 258
-123 348 -75 73 -140 100 -257 104 -76 3 -106 0 -149 -17z"/>
</g>
</svg>
