<?xml version="1.0" standalone="no"?>
<!DOCTYPE svg PUBLIC "-//W3C//DTD SVG 20010904//EN"
 "http://www.w3.org/TR/2001/REC-SVG-20010904/DTD/svg10.dtd">
<svg version="1.0" xmlns="http://www.w3.org/2000/svg"
 width="281.000000pt" height="281.000000pt" viewBox="0 0 281.000000 281.000000"
 preserveAspectRatio="xMidYMid meet">
<metadata>
Created by potrace 1.11, written by Peter Selinger 2001-2013
</metadata>
<g transform="translate(0.000000,281.000000) scale(0.100000,-0.100000)"
fill="#000000" stroke="none">
<path d="M1300 2230 c-232 -42 -417 -194 -503 -411 -33 -83 -39 -120 -40 -239
-1 -366 297 -655 666 -644 499 15 794 552 541 984 -108 185 -308 304 -525 314
-52 3 -114 1 -139 -4z m202 -181 c161 -32 312 -171 359 -331 43 -147 1 -337
-99 -444 -106 -113 -210 -159 -362 -158 -71 0 -109 5 -152 21 -229 85 -364
334 -303 562 66 248 308 400 557 350z"/>
<path d="M430 1640 c-24 -18 -25 -23 -24 -122 4 -288 165 -582 416 -761 84
-60 229 -128 338 -158 73 -20 108 -23 245 -23 136 0 173 4 245 23 300 82 537
279 664 552 62 133 82 215 93 366 6 91 6 92 -22 117 -36 34 -95 36 -124 4 -22
-23 -27 -42 -36 -153 -26 -303 -255 -591 -549 -690 -39 -13 -85 -26 -101 -29
-17 -3 -41 -8 -55 -11 -68 -14 -229 -5 -315 17 -129 32 -288 123 -384 219
-146 146 -241 366 -243 563 -1 70 -30 105 -88 105 -19 1 -46 -8 -60 -19z"/>
</g>
</svg>
